HIERARCHY
ROOT Hips
{
	OFFSET 0.00000 0.00000 0.00000
	CHANNELS 6 Xposition Yposition Zposition Zrotation Yrotation Xrotation 
	JOINT RightUpLegDummy
	{
		OFFSET 0 0 0
		CHANNELS 3 Zrotation Yrotation Xrotation
		JOINT RightUpLeg
		{
			OFFSET -3.52197 -3.41223 0.04002
			CHANNELS 3 Zrotation Yrotation Xrotation
			JOINT RightLeg
			{
				OFFSET 0.00006 -17.42390 1.60435
				CHANNELS 3 Zrotation Yrotation Xrotation
				JOINT RightFoot
				{
					OFFSET 0.06153 -16.50078 -1.63901
					CHANNELS 3 Zrotation Yrotation Xrotation
					JOINT RightToes
					{
						OFFSET 0.00298 -1.73825 3.34613
						CHANNELS 3 Zrotation Yrotation Xrotation
						End Site
						{
							OFFSET 0.00480 -0.05416 3.85043
						}
					}
				}
			}
		}
	}
	JOINT SpineDummy
	{
		OFFSET 0 0 0
		CHANNELS 3 Zrotation Yrotation Xrotation
		JOINT Spine
		{
			OFFSET 0.00000 4.68130 0.00000
			CHANNELS 3 Zrotation Yrotation Xrotation
			JOINT Spine1
			{
				OFFSET -0.00000 10.10138 0.05002
				CHANNELS 3 Zrotation Yrotation Xrotation
				JOINT HEadDummy
				{
					OFFSET 0 0 0
					CHANNELS 3 Zrotation Yrotation Xrotation
					JOINT Head
					{
						OFFSET -0.00000 3.43865 0.00438
						CHANNELS 3 Zrotation Yrotation Xrotation
						End Site
						{
							OFFSET -0.11417 5.02924 0.98962
						}
					}
				}
				JOINT LeftShoulder1Dummy
				{
					OFFSET 0 0 0
					CHANNELS 3 Zrotation Yrotation Xrotation
					JOINT LeftShoulder1
					{
						OFFSET 3.53937 -0.14262 -0.08662
						CHANNELS 3 Zrotation Yrotation Xrotation
						JOINT LeftArm
						{
							OFFSET 4.04833 -0.00133 0.12681
							CHANNELS 3 Zrotation Yrotation Xrotation
							JOINT LeftForeArm
							{
								OFFSET 10.33880 -0.01036 -0.55515
								CHANNELS 3 Zrotation Yrotation Xrotation
								JOINT LeftHand
								{
									OFFSET 8.69677 0.07543 0.40060
									CHANNELS 3 Zrotation Yrotation Xrotation
									End Site
									{
										OFFSET 5.28377 -0.21905 0.59205
									}
								}
							}
						}
					}
				}
				JOINT RightShoulderDummy
				{
					OFFSET 0 0 0
					CHANNELS 3 Zrotation Yrotation Xrotation
					JOINT RightShoulder
					{
						OFFSET -3.53937 -0.14262 -0.08660
						CHANNELS 3 Zrotation Yrotation Xrotation
						JOINT RightArm
						{
							OFFSET -4.04833 -0.00133 0.12683
							CHANNELS 3 Zrotation Yrotation Xrotation
							JOINT RightForeArm
							{
								OFFSET -10.37987 -0.01039 -0.55511
								CHANNELS 3 Zrotation Yrotation Xrotation
								JOINT RightHand
								{
									OFFSET -8.67398 0.07538 0.40058
									CHANNELS 3 Zrotation Yrotation Xrotation
									End Site
									{
										OFFSET -5.24810 -0.21916 0.59204
									}
								}
							}
						}
					}
				}
			}
		}
	}
	JOINT LeftUpLegDummy
	{
		OFFSET 0 0 0
		CHANNELS 3 Zrotation Yrotation Xrotation
		JOINT LeftUpLeg
		{
			OFFSET 3.52197 -3.41223 0.04002
			CHANNELS 3 Zrotation Yrotation Xrotation
			JOINT LeftLeg
			{
				OFFSET -0.00012 -17.42399 1.60337
				CHANNELS 3 Zrotation Yrotation Xrotation
				JOINT LeftFoot
				{
					OFFSET -0.09972 -16.50070 -1.63802
					CHANNELS 3 Zrotation Yrotation Xrotation
					JOINT LeftToes
					{
						OFFSET -0.01575 -1.73823 3.34611
						CHANNELS 3 Zrotation Yrotation Xrotation
						End Site
						{
							OFFSET 0.03150 -0.01868 3.85031
						}
					}
				}
			}
		}
	}
}
MOTION
Frames: 14
Frame Time: 0.033333
61.5288 40.5290 1.3926 95.5861 -88.5365 -96.2583 0.0000 0.0000 0.0000 0.6826 -2.6079 1.8087 -0.9233 -11.0619 4.1282 0.5827 -0.0550 -10.1355 0.0000 0.0000 0.0000 0.0000 0.0000 0.0000 -0.7927 0.0979 3.7228 0.5382 0.0174 -3.2709 -0.0000 0.0000 -0.0000 -1.4811 -5.5522 -0.0793 -0.0000 0.0000 -0.0000 -43.8743 -3.2307 3.3952 -29.0555 -0.9328 13.8539 -9.1343 -13.0716 29.4915 5.3778 0.0211 -0.2470 -0.0000 0.0000 -0.0000 36.4723 0.0601 1.5312 40.2178 8.3744 3.5677 10.4009 6.5249 28.0686 -11.1058 -1.1169 -0.4154 0.0000 0.0000 0.0000 -3.5199 -0.0052 3.1274 1.5462 20.9959 0.0149 -1.9475 0.1086 -7.3662 0.0000 0.0000 0.0000
61.5255 40.5290 1.3891 95.6101 -88.5365 -96.2810 0.0000 0.0000 0.0000 0.6934 -2.5939 1.8113 -0.9311 -11.0258 4.1227 0.5257 -0.0514 -10.1250 0.0000 0.0000 0.0000 0.0000 0.0000 0.0000 -0.8084 0.0767 3.7667 0.5280 -0.0024 -3.3647 -0.0000 0.0000 -0.0000 -1.4974 -5.5890 0.0192 -0.0000 0.0000 -0.0000 -43.8875 -3.2307 3.3952 -29.0590 -0.9811 13.7134 -9.1998 -12.9531 30.1592 5.3778 0.0211 -0.2470 -0.0000 0.0000 -0.0000 36.4397 0.0601 1.5312 40.2685 8.3624 3.4784 10.3756 6.4837 28.3959 -11.0418 -1.0325 -0.4205 0.0000 0.0000 0.0000 -3.5143 0.0067 3.1489 1.5227 20.9945 -0.0228 -1.9012 0.1056 -7.3761 0.0000 0.0000 0.0000
61.5197 40.5290 1.3832 96.1761 -88.5319 -96.8425 0.0000 0.0000 0.0000 0.7109 -2.5670 1.8212 -0.9435 -10.9804 4.1005 0.5208 -0.0511 -10.1155 0.0000 0.0000 0.0000 0.0000 0.0000 0.0000 -0.8281 0.0406 3.8102 0.4896 -0.0328 -3.4748 -0.0000 0.0000 -0.0000 -1.4824 -5.6777 0.1734 -0.0000 0.0000 -0.0000 -43.9238 -3.2307 3.3952 -29.0873 -1.0170 13.2407 -9.3568 -12.6745 30.7907 5.3778 0.0211 -0.2470 -0.0000 0.0000 -0.0000 36.4423 0.0601 1.5312 40.2832 8.3811 3.4339 10.3660 6.4148 28.8319 -11.1196 -0.9413 -0.4315 0.0000 0.0000 0.0000 -3.5003 0.0271 3.1742 1.4910 20.9908 -0.0659 -1.8678 0.1034 -7.3796 0.0000 0.0000 0.0000
61.5155 40.5290 1.3788 98.2922 -88.5201 -98.9502 0.0000 0.0000 0.0000 0.7224 -2.5383 1.8262 -0.9591 -10.9323 4.0798 0.5873 -0.0554 -10.1110 0.0000 0.0000 0.0000 0.0000 0.0000 0.0000 -0.8297 0.0178 3.8011 0.4267 -0.0459 -3.4935 -0.0000 0.0000 -0.0000 -1.4746 -5.7922 0.2263 -0.0000 0.0000 -0.0000 -43.9661 -3.2307 3.3952 -29.1437 -0.9564 12.6581 -9.4411 -12.4874 30.5422 5.3778 0.0211 -0.2470 -0.0000 0.0000 -0.0000 36.4695 0.0601 1.5312 40.2487 8.4180 3.5194 10.3813 6.4195 28.9225 -11.3148 -0.9049 -0.4422 0.0000 0.0000 0.0000 -3.4894 0.0454 3.1844 1.4684 21.0264 -0.0860 -1.8748 0.1039 -7.3698 0.0000 0.0000 0.0000
61.5130 40.5290 1.3761 101.5650 -88.4946 -102.2260 0.0000 0.0000 0.0000 0.7143 -2.5402 1.8254 -0.9567 -10.8611 4.0835 0.5944 -0.0559 -10.1096 0.0000 0.0000 0.0000 0.0000 0.0000 0.0000 -0.8088 0.0187 3.7663 0.3524 -0.0332 -3.4495 -0.0000 0.0000 -0.0000 -1.5715 -5.8890 0.1563 -0.0000 0.0000 -0.0000 -43.9758 -3.2307 3.3952 -29.1988 -0.8475 12.4180 -9.3400 -12.5933 29.8061 5.3778 0.0211 -0.2470 -0.0000 0.0000 -0.0000 36.4536 0.0621 1.5312 40.2332 8.4083 3.5981 10.3766 6.4965 28.7562 -11.2708 -0.9952 -0.4325 0.0000 0.0000 0.0000 -3.4884 0.0638 3.2017 1.4493 21.0943 -0.0966 -1.8801 0.1042 -7.3639 0.0000 0.0000 0.0000
61.5105 40.5290 1.3730 104.3260 -88.4667 -105.0130 0.0000 0.0000 0.0000 0.7005 -2.5669 1.8411 -0.9392 -10.7960 4.1006 0.4891 -0.0491 -10.1056 0.0000 0.0000 0.0000 0.0000 0.0000 0.0000 -0.7799 0.0305 3.7533 0.2842 -0.0105 -3.4224 -0.0000 0.0000 -0.0000 -1.7372 -5.9359 0.1074 -0.0000 0.0000 -0.0000 -43.9432 -3.2307 3.3952 -29.2082 -0.8071 12.7205 -9.1402 -12.8947 29.2954 5.3778 0.0211 -0.2470 -0.0000 0.0000 -0.0000 36.3837 0.0711 1.5312 40.2647 8.3421 3.5542 10.3405 6.5435 28.7102 -10.8742 -1.2103 -0.3989 0.0000 0.0000 0.0000 -3.4880 0.0883 3.2437 1.4281 21.1444 -0.1110 -1.8602 0.1029 -7.3699 0.0000 0.0000 0.0000
61.5094 40.5290 1.3685 105.7760 -88.4560 -106.4910 0.0000 0.0000 0.0000 0.7180 -2.5542 1.8708 -0.9528 -10.7921 4.0985 0.4011 -0.0435 -10.0944 0.0000 0.0000 0.0000 0.0000 0.0000 0.0000 -0.7623 0.0375 3.7534 0.2419 0.0032 -3.4247 -0.0000 0.0000 -0.0000 -1.8008 -5.9388 0.1874 -0.0000 0.0000 -0.0000 -43.8990 -3.2307 3.3952 -29.1567 -0.8700 13.1816 -9.0067 -13.1273 29.0299 5.3778 0.0211 -0.2470 -0.0000 0.0000 -0.0000 36.3173 0.0817 1.5312 40.2957 8.2816 3.4502 10.3088 6.5296 28.8074 -10.4509 -1.4212 -0.3662 0.0000 0.0000 0.0000 -3.4747 0.1159 3.2804 1.4139 21.1543 -0.1155 -1.8403 0.1017 -7.3825 0.0000 0.0000 0.0000
61.5118 40.5290 1.3634 106.4200 -88.4638 -107.1390 0.0000 0.0000 0.0000 0.7714 -2.4780 1.8812 -1.0116 -10.8400 4.0743 0.4399 -0.0460 -10.0809 0.0000 0.0000 0.0000 0.0000 0.0000 0.0000 -0.7676 0.0360 3.7574 0.2398 0.0020 -3.4239 -0.0000 0.0000 -0.0000 -1.6784 -5.9350 0.3433 -0.0000 0.0000 -0.0000 -43.8650 -3.2307 3.3952 -29.0736 -0.9732 13.2797 -8.9826 -13.1797 28.6376 5.3778 0.0211 -0.2470 -0.0000 0.0000 -0.0000 36.3002 0.0860 1.5312 40.2779 8.2711 3.3805 10.3023 6.5152 28.7823 -10.3194 -1.5100 -0.3545 0.0000 0.0000 0.0000 -3.4481 0.1388 3.2724 1.4118 21.1452 -0.0946 -1.8395 0.1016 -7.3931 0.0000 0.0000 0.0000
61.5163 40.5290 1.3584 106.5210 -88.4785 -107.2230 0.0000 0.0000 0.0000 0.8184 -2.4088 1.8642 -1.0569 -10.8805 4.0552 0.5194 -0.0511 -10.0748 0.0000 0.0000 0.0000 0.0000 0.0000 0.0000 -0.8005 0.0251 3.7600 0.2797 -0.0153 -3.4279 -0.0000 0.0000 -0.0000 -1.4653 -5.9505 0.4882 -0.0000 0.0000 -0.0000 -43.8334 -3.2307 3.3952 -28.9933 -1.0589 13.1222 -8.9710 -13.1860 28.0709 5.3778 0.0211 -0.2470 -0.0000 0.0000 -0.0000 36.3207 0.0847 1.5312 40.2193 8.2910 3.3364 10.3121 6.4996 28.6552 -10.4647 -1.4696 -0.3627 0.0000 0.0000 0.0000 -3.4187 0.1566 3.2328 1.4121 21.1262 -0.0613 -1.8451 0.1020 -7.4002 0.0000 0.0000 0.0000
61.5194 40.5290 1.3536 105.6640 -88.4968 -106.3600 0.0000 0.0000 0.0000 0.8350 -2.4008 1.8589 -1.0489 -10.9082 4.0447 0.5120 -0.0507 -10.0714 0.0000 0.0000 0.0000 0.0000 0.0000 0.0000 -0.8547 0.0022 3.7949 0.3470 -0.0492 -3.4601 -0.0000 0.0000 -0.0000 -1.2805 -5.9699 0.6105 -0.0000 0.0000 -0.0000 -43.7941 -3.2307 3.3951 -28.9367 -1.1154 13.3341 -8.8894 -13.3244 27.5619 5.3778 0.0211 -0.2470 -0.0000 0.0000 -0.0000 36.3514 0.0811 1.5312 40.1537 8.3041 3.2991 10.3314 6.4264 28.7115 -10.6777 -1.3357 -0.3812 0.0000 0.0000 0.0000 -3.3927 0.1730 3.2100 1.4150 21.0815 -0.0398 -1.8556 0.1026 -7.4038 0.0000 0.0000 0.0000
61.5208 40.5290 1.3490 104.0400 -88.5194 -104.7510 0.0000 0.0000 0.0000 0.8476 -2.4080 1.8908 -1.0314 -10.9645 4.0162 0.4521 -0.0468 -10.0569 0.0000 0.0000 0.0000 0.0000 0.0000 0.0000 -0.9124 -0.0274 3.8504 0.4158 -0.0905 -3.4960 -0.0000 0.0000 -0.0000 -1.1678 -5.9500 0.6965 -0.0000 0.0000 -0.0000 -43.7506 -3.2307 3.3953 -28.9292 -1.1430 14.0336 -8.7773 -13.5551 27.3147 5.3778 0.0211 -0.2470 -0.0000 0.0000 -0.0000 36.3972 0.0749 1.5312 40.0874 8.2967 3.2963 10.3506 6.3353 28.9973 -10.7545 -1.1321 -0.4012 0.0000 0.0000 0.0000 -3.3695 0.1876 3.2172 1.4196 21.0177 -0.0307 -1.8874 0.1047 -7.4048 0.0000 0.0000 0.0000
61.5228 40.5290 1.3451 102.7590 -88.5387 -103.4830 0.0000 0.0000 0.0000 0.8754 -2.3805 1.9259 -1.0458 -11.0355 3.9735 0.4472 -0.0466 -10.0365 0.0000 0.0000 0.0000 0.0000 0.0000 0.0000 -0.9646 -0.0527 3.8865 0.4728 -0.1254 -3.4975 -0.0000 0.0000 -0.0000 -1.1681 -5.8742 0.6622 -0.0000 0.0000 -0.0000 -43.7232 -3.2307 3.3956 -28.9783 -1.1374 14.5014 -8.7470 -13.6448 27.4959 5.3778 0.0211 -0.2470 -0.0000 0.0000 -0.0000 36.4705 0.0668 1.5312 40.0185 8.2732 3.3155 10.3459 6.3289 29.2576 -10.6123 -0.9331 -0.4127 0.0000 0.0000 0.0000 -3.3498 0.1979 3.2190 1.4232 20.9702 -0.0145 -1.9289 0.1074 -7.4091 0.0000 0.0000 0.0000
61.5260 40.5290 1.3419 102.5000 -88.5459 -103.2150 0.0000 0.0000 0.0000 0.8905 -2.3608 1.9191 -1.0532 -11.0528 3.9609 0.4884 -0.0492 -10.0334 0.0000 0.0000 0.0000 0.0000 0.0000 0.0000 -1.0215 -0.0689 3.8910 0.5312 -0.1511 -3.4755 -0.0000 0.0000 -0.0000 -1.3220 -5.7942 0.4589 -0.0000 0.0000 -0.0000 -43.7463 -3.2307 3.3960 -29.0371 -1.0956 14.2198 -8.8370 -13.4884 28.0432 5.3778 0.0211 -0.2470 -0.0000 0.0000 -0.0000 36.5436 0.0608 1.5312 39.9837 8.2457 3.3162 10.3201 6.4002 29.2566 -10.4352 -0.8969 -0.4090 0.0000 0.0000 0.0000 -3.3365 0.2056 3.1937 1.4240 20.9554 0.0112 -1.9402 0.1081 -7.4177 0.0000 0.0000 0.0000
61.5288 40.5290 1.3392 102.9310 -88.5402 -103.6270 0.0000 0.0000 0.0000 0.8691 -2.4002 1.8677 -1.0144 -11.0001 4.0126 0.4915 -0.0494 -10.0605 0.0000 0.0000 0.0000 0.0000 0.0000 0.0000 -1.0830 -0.0767 3.8833 0.5946 -0.1690 -3.4644 -0.0000 0.0000 -0.0000 -1.5514 -5.7906 0.1803 -0.0000 0.0000 -0.0000 -43.8268 -3.2298 3.3965 -29.0520 -1.0189 13.6421 -8.9436 -13.2732 28.5114 5.3778 0.0211 -0.2470 -0.0000 0.0000 -0.0000 36.5730 0.0593 1.5312 40.0259 8.2221 3.3266 10.3159 6.4566 28.9122 -10.5578 -1.1326 -0.3939 0.0000 0.0000 0.0000 -3.3314 0.2120 3.1541 1.4227 20.9606 0.0422 -1.9148 0.1064 -7.4291 0.0000 0.0000 0.0000
